# xmcd
#
# Track frame offsets: 
#        150
#        20428
#        34962
#        56164
#        74613
#        89667
#        112269
#        130518
#        149808
#        171482
#        195456
#        211319
#        229130
#
# Disc length: 3269 seconds
#
# Revision: 0
# Processed by: cddbd v1.5.1PL0 Copyright (c) Steve Scherf et al.
# Submitted via: ExactAudioCopy v0.95a4
#
DISCID=cf0cc30d
DTITLE=Tex, Don and Charlie - All Is Forgiven
DYEAR=2005
DGENRE=Blues
TTITLE0=Paycheques
TTITLE1=A Place To Hide
TTITLE2=Whenever It Snows
TTITLE3=Jails
TTITLE4=You're 39, You're Beautiful and You're Mine
TTITLE5=Words Fail Me
TTITLE6=Another Night In
TTITLE7=Lost In Space
TTITLE8=The Singer Of The Song
TTITLE9=Harry Was A Bad Bugger
TTITLE10=The Price You Had To Pay
TTITLE11=The Healing Power Of Helpless Laughter
TTITLE12=Someday I'll Forget
EXTD=
EXTT0=
EXTT1=
EXTT2=
EXTT3=
EXTT4=
EXTT5=
EXTT6=
EXTT7=
EXTT8=
EXTT9=
EXTT10=
EXTT11=
EXTT12=
PLAYORDER=
